<?xml version="1.0" standalone="no"?>
<!DOCTYPE svg PUBLIC "-//W3C//DTD SVG 1.1//EN"
"http://www.w3.org/Graphics/SVG/1.1/DTD/svg11.dtd">

<svg width="388" height="126" view_box="0 0 388 126"
xmlns="http://www.w3.org/2000/svg"
xmlns:link="http://www.w3.org/1999/xlink">\n\n<desc>Généré par Mocodo 2.3.7 le Thu, 30 Sep 2021 00:54:01</desc>

<rect id="frame" x="0" y="0" width="388" height="126" fill="#f7f7f7" stroke="none" stroke-width="0"/>

<!-- Association is related to -->
<line x1="53" y1="63" x2="183" y2="63" stroke="#d6604d" stroke-width="1.5"/>
<text x="103" y="80.0" fill="#2166ac" font-family="Arial" font-size="12">1,1</text>
<line x1="324" y1="63" x2="183" y2="63" stroke="#d6604d" stroke-width="1.5"/>
<text x="242" y="80.0" fill="#2166ac" font-family="Arial" font-size="12">0,N</text>
<g id="association-is related to">
	<path d="M 222 35 a 14 14 90 0 1 14 14 V 62 h -106 V 49 a 14 14 90 0 1 14 -14" fill="#f4a582" stroke="#f4a582" stroke-width="0"/>
	<path d="M 236 62.0 v 15 a 14 14 90 0 1 -14 14 H 144 a 14 14 90 0 1 -14 -14 V 62.0 H 106" fill="#fddbc7" stroke="#fddbc7" stroke-width="0"/>
	<rect x="130" y="35" width="106" height="56" fill="none" rx="14" stroke="#d6604d" stroke-width="3"/>
	<line x1="130" y1="62" x2="236" y2="62" stroke="#d6604d" stroke-width="1.5"/>
	<text x="139" y="55.3" fill="#000000" font-family="Arial Black" font-size="13">is related to</text>
</g>

<!-- Entity CATEGORY -->
<g id="entity-CATEGORY">
	<g id="frame-CATEGORY">
		<rect x="269" y="18" width="110" height="28" fill="#92c5de" stroke="#92c5de" stroke-width="0"/>
		<rect x="269" y="46.0" width="110" height="62" fill="#d1e5f0" stroke="#d1e5f0" stroke-width="0"/>
		<rect x="269" y="18" width="110" height="90" fill="none" stroke="#4393c3" stroke-width="3"/>
		<line x1="269" y1="46" x2="379" y2="46" stroke="#4393c3" stroke-width="1.5"/>
	</g>
	<text x="283" y="38.3" fill="#000000" font-family="Arial Black" font-size="13">CATEGORY</text>
	<text x="277" y="62.2" fill="#000000" font-family="Arial" font-size="14">category code</text>
	<line x1="277" y1="65" x2="370" y2="65" stroke="#000000" stroke-width="1.2"/>
	<text x="277" y="80.2" fill="#000000" font-family="Arial" font-size="14">name</text>
	<text x="277" y="98.2" fill="#000000" font-family="Arial" font-size="14">status</text>
</g>

<!-- Entity TASK -->
<g id="entity-TASK">
	<g id="frame-TASK">
		<rect x="9" y="9" width="88" height="28" fill="#92c5de" stroke="#92c5de" stroke-width="0"/>
		<rect x="9" y="37.0" width="88" height="80" fill="#d1e5f0" stroke="#d1e5f0" stroke-width="0"/>
		<rect x="9" y="9" width="88" height="108" fill="none" stroke="#4393c3" stroke-width="3"/>
		<line x1="9" y1="37" x2="97" y2="37" stroke="#4393c3" stroke-width="1.5"/>
	</g>
	<text x="32" y="29.3" fill="#000000" font-family="Arial Black" font-size="13">TASK</text>
	<text x="17" y="53.2" fill="#000000" font-family="Arial" font-size="14">task code</text>
	<line x1="17" y1="56" x2="81" y2="56" stroke="#000000" stroke-width="1.2"/>
	<text x="17" y="71.2" fill="#000000" font-family="Arial" font-size="14">title</text>
	<text x="17" y="89.2" fill="#000000" font-family="Arial" font-size="14">completion</text>
	<text x="17" y="107.2" fill="#000000" font-family="Arial" font-size="14">status</text>
</g>
</svg>